<svg width="612" height="261" viewBox="0 0 612 261" fill="none" xmlns="http://www.w3.org/2000/svg">
<path d="M0.69863 259.411C0.662301 259.682 0.852394 259.931 1.12321 259.967L5.53677 260.559C5.80762 260.596 6.05665 260.406 6.093 260.135C6.12933 259.864 5.93924 259.615 5.66842 259.578L1.74524 259.052L2.27174 255.129C2.30807 254.858 2.11797 254.609 1.84715 254.573C1.57631 254.536 1.32728 254.726 1.29093 254.997L0.69863 259.411ZM296.467 34.0737L296.167 33.6804L0.888809 259.083L1.18904 259.477L1.48926 259.87L296.767 34.467L296.467 34.0737Z" fill="white"/>
<path d="M48.0301 249.299C48.0109 249.571 48.2163 249.808 48.4888 249.827L52.9309 250.14C53.2035 250.16 53.4401 249.954 53.4593 249.682C53.4785 249.409 53.2732 249.173 53.0006 249.153L49.0521 248.875L49.3307 244.926C49.3499 244.654 49.1445 244.417 48.8719 244.398C48.5993 244.379 48.3628 244.584 48.3435 244.857L48.0301 249.299ZM296.467 34.0737L296.142 33.7001L48.1993 248.96L48.5237 249.333L48.848 249.707L296.791 34.4474L296.467 34.0737Z" fill="white"/>
<path d="M300.798 35.685L302.698 35.21V14.9433L300.798 14.4683V13.9933H303.648C304.893 13.9933 305.875 14.3944 306.593 15.1967C306.867 15.5133 307.099 15.9039 307.289 16.3683C307.564 15.8194 307.912 15.3444 308.334 14.9433C309.284 13.9933 310.467 13.5183 311.881 13.5183C313.127 13.5183 314.235 13.8455 315.206 14.5C316.177 15.1333 316.948 16.0833 317.518 17.35C318.088 18.5955 318.373 20.1155 318.373 21.91C318.373 24.6122 317.739 26.6917 316.473 28.1483C315.227 29.5839 313.538 30.3017 311.406 30.3017C310.393 30.3017 309.506 30.0905 308.746 29.6683C308.429 29.5205 308.102 29.3094 307.764 29.035V35.21L309.664 35.685V36.16H300.798V35.685ZM310.139 29.3517C311.047 29.3517 311.744 28.8239 312.229 27.7683C312.736 26.7128 312.989 24.76 312.989 21.91C312.989 19.1867 312.757 17.2972 312.293 16.2417C311.849 15.165 311.29 14.6267 310.614 14.6267C309.812 14.6267 309.094 15.0489 308.461 15.8933C308.187 16.2522 307.954 16.6744 307.764 17.16V28.085C308.06 28.3805 308.292 28.5917 308.461 28.7183C309.031 29.1405 309.59 29.3517 310.139 29.3517ZM327.081 30.3017C325.202 30.3017 323.756 29.9005 322.743 29.0983C321.729 28.2961 321.223 27.2722 321.223 26.0267C321.223 25.2033 321.402 24.3905 321.761 23.5883C321.909 23.2083 322.099 22.86 322.331 22.5433C323.197 22.3322 324.136 22.1422 325.149 21.9733C327.429 21.5933 329.445 21.3611 331.198 21.2767V20.3267C331.198 17.9833 330.913 16.3683 330.343 15.4817C329.773 14.595 328.897 14.1517 327.714 14.1517C327.271 14.1517 326.891 14.2044 326.574 14.31L326.131 14.4683V19.2183L325.719 19.3133C325.382 19.3555 325.097 19.3767 324.864 19.3767C324.147 19.3767 323.566 19.1655 323.123 18.7433C322.7 18.3 322.489 17.7194 322.489 17.0017C322.489 16.0305 322.975 15.2072 323.946 14.5317C324.938 13.8561 326.405 13.5183 328.348 13.5183C329.994 13.5183 331.409 13.8139 332.591 14.405C333.794 14.975 334.702 15.7772 335.314 16.8117C335.948 17.825 336.264 18.9967 336.264 20.3267V28.8767L338.164 29.3517V29.8267H335.314C334.048 29.8267 333.066 29.4361 332.369 28.655C332.074 28.3383 331.842 27.9372 331.673 27.4517C331.377 27.9794 331.029 28.4544 330.628 28.8767C329.678 29.8267 328.495 30.3017 327.081 30.3017ZM328.348 29.1933C329.129 29.1933 329.836 28.7711 330.469 27.9267C330.702 27.61 330.944 27.1878 331.198 26.66V22.0683C330.227 22.0683 329.298 22.1211 328.411 22.2267C327.757 22.3111 327.313 22.3639 327.081 22.385C326.975 22.6172 326.87 22.9339 326.764 23.335C326.553 24.1372 326.448 24.9289 326.448 25.71C326.448 26.8922 326.627 27.7683 326.986 28.3383C327.345 28.9083 327.799 29.1933 328.348 29.1933ZM346.413 30.3017C345.04 30.3017 343.848 30.08 342.834 29.6367C341.842 29.1722 341.082 28.5705 340.554 27.8317C340.026 27.0717 339.763 26.2589 339.763 25.3933H340.554C340.554 26.09 340.776 26.755 341.219 27.3883C341.663 28.0217 342.275 28.5389 343.056 28.94C343.858 29.32 344.766 29.51 345.779 29.51C348.207 29.51 349.421 28.2433 349.421 25.71C349.421 24.4855 349.146 23.5461 348.598 22.8917C348.049 22.2372 347.32 21.91 346.413 21.91H344.354V21.1183H345.779C346.687 21.1183 347.415 20.8122 347.964 20.2C348.513 19.5878 348.788 18.7328 348.788 17.635C348.788 16.5372 348.513 15.6822 347.964 15.07C347.415 14.4578 346.687 14.1517 345.779 14.1517C345.251 14.1517 344.798 14.2044 344.417 14.31L343.879 14.4683V19.2183L343.467 19.3133C343.13 19.3555 342.845 19.3767 342.613 19.3767C341.895 19.3767 341.314 19.1655 340.871 18.7433C340.449 18.3 340.238 17.7194 340.238 17.0017C340.238 16.0305 340.744 15.2072 341.758 14.5317C342.792 13.8561 344.344 13.5183 346.413 13.5183C348.165 13.5183 349.611 13.7083 350.751 14.0883C351.891 14.4683 352.714 14.975 353.221 15.6083C353.749 16.2205 354.013 16.8961 354.013 17.635C354.013 18.5217 353.738 19.2183 353.189 19.725C352.661 20.2317 351.954 20.6433 351.068 20.96C350.202 21.2555 349.231 21.4139 348.154 21.435V21.5933C349.273 21.6144 350.35 21.7833 351.384 22.1C352.334 22.3955 353.115 22.8389 353.728 23.43C354.34 24 354.646 24.76 354.646 25.71C354.646 27.1033 354.002 28.2222 352.714 29.0667C351.426 29.89 349.326 30.3017 346.413 30.3017ZM356.871 29.8267V29.3517L358.771 28.8767V14.9433L356.871 14.4683V13.9933H365.738V14.4683L363.838 14.9433V21.435H368.588V14.9433L366.688 14.4683V13.9933H375.554V14.4683L373.654 14.9433V28.8767L375.554 29.3517V29.8267H366.688V29.3517L368.588 28.8767V22.2267H363.838V28.8767L365.738 29.3517V29.8267H356.871ZM384.26 30.3017C382.381 30.3017 380.935 29.9005 379.922 29.0983C378.909 28.2961 378.402 27.2722 378.402 26.0267C378.402 25.2033 378.581 24.3905 378.94 23.5883C379.088 23.2083 379.278 22.86 379.51 22.5433C380.376 22.3322 381.315 22.1422 382.329 21.9733C384.609 21.5933 386.625 21.3611 388.377 21.2767V20.3267C388.377 17.9833 388.092 16.3683 387.522 15.4817C386.952 14.595 386.076 14.1517 384.894 14.1517C384.45 14.1517 384.07 14.2044 383.754 14.31L383.31 14.4683V19.2183L382.899 19.3133C382.561 19.3555 382.276 19.3767 382.044 19.3767C381.326 19.3767 380.745 19.1655 380.302 18.7433C379.88 18.3 379.669 17.7194 379.669 17.0017C379.669 16.0305 380.154 15.2072 381.125 14.5317C382.118 13.8561 383.585 13.5183 385.527 13.5183C387.174 13.5183 388.588 13.8139 389.77 14.405C390.974 14.975 391.881 15.7772 392.494 16.8117C393.127 17.825 393.444 18.9967 393.444 20.3267V28.8767L395.344 29.3517V29.8267H392.494C391.227 29.8267 390.245 29.4361 389.549 28.655C389.253 28.3383 389.021 27.9372 388.852 27.4517C388.556 27.9794 388.208 28.4544 387.807 28.8767C386.857 29.8267 385.675 30.3017 384.26 30.3017ZM385.527 29.1933C386.308 29.1933 387.015 28.7711 387.649 27.9267C387.881 27.61 388.124 27.1878 388.377 26.66V22.0683C387.406 22.0683 386.477 22.1211 385.59 22.2267C384.936 22.3111 384.493 22.3639 384.26 22.385C384.155 22.6172 384.049 22.9339 383.944 23.335C383.733 24.1372 383.627 24.9289 383.627 25.71C383.627 26.8922 383.806 27.7683 384.165 28.3383C384.524 28.9083 384.978 29.1933 385.527 29.1933ZM396.15 29.3517L397.734 28.8767L399 25.0767C399.338 24.0633 400.235 23.3244 401.692 22.86C402.283 22.6911 402.969 22.5855 403.75 22.5433V22.385C402.779 22.3639 401.829 22.195 400.9 21.8783C399 21.2028 398.05 20.0522 398.05 18.4267C398.05 17.1178 398.694 16.0517 399.982 15.2283C401.291 14.405 403.391 13.9933 406.284 13.9933H414.675V14.4683L412.775 14.9433V28.8767L414.675 29.3517V29.8267H405.809V29.3517L407.709 28.8767V22.86H405.175L403.75 27.2933C403.518 27.99 403.064 28.5917 402.389 29.0983C401.734 29.5839 400.921 29.8267 399.95 29.8267H396.15V29.3517ZM407.709 22.0683V14.785H406.284C405.376 14.785 404.647 15.1017 404.099 15.735C403.55 16.3472 403.275 17.2444 403.275 18.4267C403.275 19.6089 403.55 20.5167 404.099 21.15C404.647 21.7622 405.376 22.0683 406.284 22.0683H407.709ZM429.088 29.3517L430.988 28.8767V14.785H428.613C428.613 15.9461 428.265 17.1178 427.568 18.3C427.294 18.7433 426.956 19.155 426.555 19.535H425.605V13.9933H441.438V19.535H440.488C440.087 19.1761 439.739 18.7644 439.443 18.3C438.768 17.16 438.43 15.9883 438.43 14.785H436.055V28.8767L437.955 29.3517V29.8267H429.088V29.3517ZM451.882 30.3017C449.265 30.3017 447.206 29.5628 445.707 28.085C444.23 26.5861 443.491 24.5278 443.491 21.91C443.491 19.2922 444.23 17.2444 445.707 15.7667C447.206 14.2678 449.265 13.5183 451.882 13.5183C454.5 13.5183 456.548 14.2678 458.026 15.7667C459.525 17.2444 460.274 19.2922 460.274 21.91C460.274 24.5278 459.525 26.5861 458.026 28.085C456.548 29.5628 454.5 30.3017 451.882 30.3017ZM451.882 29.6683C452.727 29.6683 453.434 29.0772 454.004 27.895C454.595 26.7128 454.891 24.7178 454.891 21.91C454.891 19.1022 454.595 17.1072 454.004 15.925C453.434 14.7428 452.727 14.1517 451.882 14.1517C451.038 14.1517 450.32 14.7428 449.729 15.925C449.159 17.1072 448.874 19.1022 448.874 21.91C448.874 24.7178 449.159 26.7128 449.729 27.895C450.32 29.0772 451.038 29.6683 451.882 29.6683ZM464.243 30.3017C463.293 30.3017 462.555 30.0483 462.027 29.5417C461.499 29.035 461.235 28.3383 461.235 27.4517C461.235 26.755 461.467 26.1639 461.932 25.6783C462.417 25.1717 462.977 24.9183 463.61 24.9183C463.779 24.9183 463.948 24.9394 464.117 24.9817C464.286 25.0028 464.402 25.0133 464.465 25.0133L464.877 25.0767V29.3517C465.383 29.1194 465.827 28.655 466.207 27.9583C466.587 27.2617 466.83 26.09 466.935 24.4433L467.568 15.1017L465.352 14.4683V13.9933H480.077V14.4683L478.177 14.9433V28.8767L480.077 29.3517V29.8267H471.21V29.3517L473.11 28.8767V14.785H468.518L467.885 24.4433C467.758 26.4489 467.357 27.9267 466.682 28.8767C466.006 29.8267 465.193 30.3017 464.243 30.3017ZM509.843 35.0517C509.295 34.6928 508.841 34.26 508.482 33.7533C507.595 32.6133 507.152 31.3044 507.152 29.8267H482.61V29.3517L484.51 28.8767V14.9433L482.61 14.4683V13.9933H491.318V14.4683L489.577 14.9433V29.035H493.693V14.9433L491.952 14.4683V13.9933H500.502V14.4683L498.76 14.9433V29.035H502.877V14.9433L501.135 14.4683V13.9933H509.843V14.4683L507.943 14.9433V29.035H510.793V35.0517H509.843ZM512.545 29.8267V29.3517L514.445 28.8767V14.9433L512.545 14.4683V13.9933H521.412V14.4683L519.512 14.9433V25.3933L524.578 16.685V14.9433L522.678 14.4683V13.9933H531.545V14.4683L529.645 14.9433V28.8767L531.545 29.3517V29.8267H522.678V29.3517L524.578 28.8767V18.4267L519.512 27.135V28.8767L521.412 29.3517V29.8267H512.545ZM534.068 29.8267V29.3517L535.968 28.8767V14.9433L534.068 14.4683V13.9933H542.935V14.4683L541.035 14.9433V21.435H545.785V14.9433L543.885 14.4683V13.9933H552.752V14.4683L550.852 14.9433V28.8767L552.752 29.3517V29.8267H543.885V29.3517L545.785 28.8767V22.2267H541.035V28.8767L542.935 29.3517V29.8267H534.068ZM561.458 30.3017C559.579 30.3017 558.133 29.9005 557.119 29.0983C556.106 28.2961 555.599 27.2722 555.599 26.0267C555.599 25.2033 555.779 24.3905 556.138 23.5883C556.285 23.2083 556.475 22.86 556.708 22.5433C557.573 22.3322 558.513 22.1422 559.526 21.9733C561.806 21.5933 563.822 21.3611 565.574 21.2767V20.3267C565.574 17.9833 565.289 16.3683 564.719 15.4817C564.149 14.595 563.273 14.1517 562.091 14.1517C561.648 14.1517 561.268 14.2044 560.951 14.31L560.508 14.4683V19.2183L560.096 19.3133C559.758 19.3555 559.473 19.3767 559.241 19.3767C558.523 19.3767 557.943 19.1655 557.499 18.7433C557.077 18.3 556.866 17.7194 556.866 17.0017C556.866 16.0305 557.352 15.2072 558.323 14.5317C559.315 13.8561 560.782 13.5183 562.724 13.5183C564.371 13.5183 565.785 13.8139 566.968 14.405C568.171 14.975 569.079 15.7772 569.691 16.8117C570.324 17.825 570.641 18.9967 570.641 20.3267V28.8767L572.541 29.3517V29.8267H569.691C568.424 29.8267 567.443 29.4361 566.746 28.655C566.45 28.3383 566.218 27.9372 566.049 27.4517C565.754 27.9794 565.405 28.4544 565.004 28.8767C564.054 29.8267 562.872 30.3017 561.458 30.3017ZM562.724 29.1933C563.505 29.1933 564.213 28.7711 564.846 27.9267C565.078 27.61 565.321 27.1878 565.574 26.66V22.0683C564.603 22.0683 563.674 22.1211 562.788 22.2267C562.133 22.3111 561.69 22.3639 561.458 22.385C561.352 22.6172 561.247 22.9339 561.141 23.335C560.93 24.1372 560.824 24.9289 560.824 25.71C560.824 26.8922 561.004 27.7683 561.363 28.3383C561.722 28.9083 562.175 29.1933 562.724 29.1933Z" fill="white"/>
</svg>
